<svg xmlns="http://www.w3.org/2000/svg" xmlns:xlink="http://www.w3.org/1999/xlink" id="圖層_1" x="0" y="0" version="1.1" viewBox="-254 131 450 300" xml:space="preserve" style="enable-background:new -254 131 450 300"><style type="text/css">.st0{fill:#0f7562}.st1{fill:#ffde23}.st2{fill:#fff}</style><rect width="450" height="300" x="-254" y="131" class="st0"/><polygon points="-23.012 205.994 -13.322 198.954 -25.299 198.954 -29 187.562 -32.701 198.954 -44.678 198.954 -34.988 205.994 -38.687 217.382 -29 210.344 -19.313 217.382" class="st1"/><polygon points="-89.414 246.889 -82.169 242.87 -90.392 241.861 -91.973 233.73 -95.473 241.238 -103.697 240.229 -97.637 245.88 -101.138 253.393 -93.892 249.373 -87.833 255.023" class="st1"/><polygon points="-67.233 220.456 -58.946 220.6 -65.566 215.614 -62.867 207.778 -69.657 212.532 -76.275 207.548 -73.853 215.47 -80.641 220.223 -72.356 220.367 -69.932 228.295" class="st1"/><g><path d="M-87.5204468,343.421814c1.5831909,1.3568115,3.2120361,2.6604614,4.8879395,3.9061279H-29h53.6325073 c1.6759033-1.2456665,3.3047485-2.5493164,4.8879395-3.9061279H-29H-87.5204468z" class="st2"/><path d="M-76.9345703,351.2340698c2.9025269,1.8314209,5.9147949,3.5039063,9.0286255,4.9998169H-29H9.9059448 c3.1138306-1.4959106,6.1260986-3.168396,9.0286255-4.9998169H-29H-76.9345703z" class="st2"/><path d="M-62.1936035,358.7340698C-51.9206543,362.8168335-40.7218018,365.0620728-29,365.0620728 s22.9207153-2.2452393,33.1936035-6.3280029H-29H-62.1936035z" class="st2"/><path d="M-95.4261475,335.765686c0.7759399,0.8481445,1.5709229,1.6820068,2.3781738,2.5002441H-29h64.0479736 c0.807251-0.8182373,1.6022339-1.6520996,2.3781738-2.5002441H-29H-95.4261475z" class="st2"/><path d="M-8.6920166,323.4452515C-18.6534424,320.4315796-25.4061279,314.9818115-29,311.5809326 c-3.5938721,3.4008789-10.3465576,8.850647-20.3079834,11.8643188c-4.6506348,1.4072876-9.5829468,2.1633911-14.6917725,2.1633911 h-39.4581909c1.163147,1.7093506,2.3822632,3.3777466,3.6572266,4.9998169h38.1443481 C-49.2186279,330.6090698-37.8240967,326.1220093-29,318.6806641c8.8240967,7.4413452,20.2186279,11.9284058,32.6563721,11.9277954 h38.1443481c1.2749634-1.6220703,2.4940796-3.2904663,3.6572266-4.9998169H5.9997559 C0.8909302,325.6086426-4.0413208,324.8525391-8.6920166,323.4452515z" class="st2"/><path d="M4.2802124,317.4840698c-3.0756836,0-6.088623-0.2747803-9.0136108-0.800415 c1.3745117,0.1124878,2.7661133,0.1759033,4.1699829,0.1759033c21.6777344,0,40.1897583-13.6295776,47.4368286-32.7784424 c-7.0527344-2.9413452-14.7900391-4.5654297-22.9050293-4.5654297c-14.5206909,0-27.8345337,5.2029419-38.1784058,13.8429565 c10.8313599-11.2991333,26.0604858-18.3484497,42.9299927-18.3743286c1.0800171-2.0918579,2.5125122-3.9709473,4.2191162-5.5615845 c-0.9013672-0.0402222-1.8088989-0.0634155-2.7197876-0.0634155c-16.9588623,0-32.2683716,7.0949707-43.125,18.4765625 c6.2338867-8.4224854,9.921814-18.8406372,9.921814-30.1172485c0-9.0661621-2.3843384-17.5752563-6.5577393-24.9415894 c-0.9224854,3.0750122-2.5568237,5.8417969-4.7072754,8.1149902c3.114563,6.5720825,4.8586426,13.9186401,4.8586426,21.6702271 c0,11.6699829-3.9511108,22.4208984-10.5858765,30.991394c5.40271-8.0611572,8.5547485-17.7531738,8.5547485-28.178894 c0-5.0222778-0.7322388-9.8747559-2.0945435-14.456604C-17.1561279,238.678894-24.878418,230.6954346-29,227.0006714 c-4.121582,3.6947632-11.8438721,11.6782227-15.4840698,23.9174805c-1.3623047,4.5818481-2.0945435,9.4343262-2.0945435,14.456604 c0,10.4257202,3.1520386,20.1177368,8.5547485,28.178894c-6.6347656-8.5704956-10.5858765-19.3214111-10.5858765-30.991394 c0-7.7515869,1.7440796-15.0981445,4.8586426-21.6702271c-2.1504517-2.2731934-3.78479-5.039978-4.7072754-8.1149902 c-4.1734009,7.366333-6.5577393,15.8754272-6.5577393,24.9415894c0,11.2766113,3.6879272,21.6947632,9.921814,30.1172485 c-10.8565674-11.3815918-26.1661377-18.4765625-43.125-18.4765625c-0.9108887,0-1.8184204,0.0231934-2.7197876,0.0634155 c1.706604,1.5906372,3.1390991,3.4697266,4.2191162,5.5615845c16.8695679,0.0258789,32.0986328,7.0751953,42.9299927,18.3743286 c-10.3438721-8.6400146-23.6577148-13.8429565-38.1784058-13.8429565c-8.1149902,0-15.8522949,1.6240845-22.9050293,4.5654297 c7.2470703,19.1488647,25.7590942,32.7784424,47.4368286,32.7784424c1.4038696,0,2.7954712-0.0634155,4.1700439-0.1759033 c-2.9250488,0.5256348-5.9379883,0.800415-9.0136719,0.800415c-13.6779785,0-26.0925293-5.4245605-35.2159424-14.2376709 c-1.8988647,0.730896-3.9354248,1.1870117-6.0592651,1.3131714c9.2924805,10.5101929,22.871582,17.1436157,37.9929199,17.1436157 c14.3632202,0,27.3347778-5.9829712,36.5625-15.5911255c9.2277222,9.6081543,22.1993408,15.5911255,36.5625,15.5911255 c15.1213379,0,28.7004395-6.6334229,37.992981-17.1436157c-2.1239014-0.1261597-4.1604614-0.5822754-6.0593262-1.3131714 C30.3727417,312.0595093,17.9581909,317.4840698,4.2802124,317.4840698z" class="st2"/></g><polygon points="39.637 245.88 45.697 240.229 37.473 241.238 33.973 233.73 32.392 241.861 24.169 242.87 31.414 246.889 29.833 255.023 35.892 249.373 43.138 253.393" class="st1"/><polygon points="14.356 220.367 22.641 220.223 15.853 215.47 18.275 207.548 11.657 212.532 4.867 207.778 7.566 215.614 .946 220.6 9.233 220.456 11.932 228.295" class="st1"/></svg>